<?xml version="1.0" standalone="no"?>
<!DOCTYPE svg PUBLIC "-//W3C//DTD SVG 20010904//EN"
 "http://www.w3.org/TR/2001/REC-SVG-20010904/DTD/svg10.dtd">
<svg version="1.0" xmlns="http://www.w3.org/2000/svg"
 fill="rgba(179, 179, 179,0.5)" viewBox="0 0 125.000000 88.000000"
 preserveAspectRatio="xMidYMid meet">

<g transform="translate(0.000000,88.000000) scale(0.100000,-0.100000)"
stroke="none">
<path d="M930 673 c-30 -8 -91 -22 -135 -32 l-79 -16 3 -55 c1 -30 5 -57 7
-59 5 -5 162 31 247 56 l47 14 0 54 c0 63 0 63 -90 38z m62 -41 c3 -19 0 -29
-9 -29 -13 0 -18 38 -6 50 10 10 10 9 15 -21z m-56 -1 c0 -11 -4 -17 -8 -15
-4 3 -8 12 -8 20 0 8 4 14 8 14 4 0 8 -9 8 -19z m21 -28 c-3 -10 -5 -2 -5 17
0 19 2 27 5 18 2 -10 2 -26 0 -35z m-51 10 c-10 -10 -19 5 -10 18 6 11 8 11
12 0 2 -7 1 -15 -2 -18z m-26 -10 c0 -15 -27 -42 -42 -43 -5 0 -7 12 -7 28 2
23 2 24 6 4 6 -29 23 -18 23 14 0 14 4 22 10 19 6 -3 10 -13 10 -22z m-60 -27
c0 -28 -13 -10 -17 22 -3 21 -1 24 7 12 5 -8 10 -24 10 -34z m-49 25 c7 11 9
9 9 -7 0 -11 -7 -29 -15 -40 -13 -18 -14 -16 -14 21 0 22 3 34 6 26 5 -11 7
-11 14 0z m164 -11 c3 -5 1 -10 -4 -10 -6 0 -11 5 -11 10 0 6 2 10 4 10 3 0 8
-4 11 -10z"/>
<path d="M520 600 c-213 -53 -272 -68 -275 -72 -7 -8 9 -198 16 -198 5 0 57
11 115 25 58 14 108 25 110 25 2 0 4 -32 4 -70 0 -53 4 -72 15 -76 8 -3 47 3
87 14 40 12 116 30 168 42 52 11 128 30 168 42 l72 21 0 94 c0 68 -4 95 -13
99 -7 2 -70 -9 -141 -26 -70 -16 -129 -30 -131 -30 -2 0 -6 34 -10 75 -5 46
-12 75 -19 74 -6 0 -81 -18 -166 -39z m142 -22 c-7 -7 -12 -36 -12 -65 0 -29
-4 -53 -10 -53 -5 0 -10 22 -10 49 0 28 -5 53 -10 56 -17 10 -1 25 28 25 20 0
23 -3 14 -12z m-54 -18 c3 -9 -1 -11 -12 -7 -21 8 -20 -4 2 -42 13 -23 14 -35
6 -48 -15 -24 -33 -28 -40 -8 -9 21 5 33 16 15 8 -13 10 -13 10 1 0 8 -7 24
-15 35 -18 23 -19 46 -3 62 14 14 30 11 36 -8z m-70 -19 c-11 -18 -11 -23 2
-32 11 -8 12 -12 3 -16 -7 -2 -13 -14 -13 -24 0 -13 4 -17 11 -13 7 4 10 1 7
-7 -3 -8 -12 -15 -21 -17 -15 -3 -17 6 -17 62 0 53 3 65 18 68 24 6 25 3 10
-21z m-58 -46 c0 -30 5 -55 10 -55 6 0 10 -4 10 -10 0 -5 -9 -10 -20 -10 -18
0 -20 7 -20 65 0 37 4 65 10 65 6 0 10 -25 10 -55z m-32 -17 c2 -48 0 -58 -16
-67 -27 -14 -32 -5 -32 59 0 61 5 72 30 68 11 -2 16 -18 18 -60z m-60 -14 c2
-36 -1 -54 -12 -63 -24 -20 -36 -3 -36 53 0 57 5 68 30 64 11 -2 16 -18 18
-54z m-61 31 c8 -22 -6 -33 -17 -15 -7 11 -10 0 -10 -34 0 -47 1 -49 15 -30
15 18 15 18 13 -6 -2 -17 -9 -25 -23 -25 -17 0 -20 8 -23 49 -2 27 -1 55 2 62
7 19 35 18 43 -1z m628 -6 c0 -8 -6 -13 -12 -11 -17 3 -16 -8 2 -32 20 -26 19
-62 -1 -70 -20 -8 -34 1 -34 20 0 17 16 19 23 2 4 -9 6 -8 6 3 1 8 -6 24 -14
35 -18 23 -19 46 -3 62 15 15 33 10 33 -9z m-63 -61 c-5 -81 -22 -91 -22 -13
0 30 -4 55 -10 55 -20 0 -9 19 13 22 12 2 22 4 23 3 1 0 -1 -30 -4 -67z m-45
37 c8 -22 -6 -33 -17 -15 -7 11 -10 0 -10 -34 0 -46 1 -48 15 -30 14 19 14 18
15 -3 0 -22 -32 -48 -44 -36 -8 8 -8 118 1 126 12 12 33 7 40 -8z m-57 -4 c0
-5 -7 -12 -15 -15 -12 -4 -13 -10 -5 -25 5 -11 7 -27 4 -36 -4 -10 -1 -21 6
-25 15 -9 5 -30 -16 -30 -19 0 -20 126 -1 133 19 8 27 8 27 -2z m-57 -61 c6
-49 1 -80 -12 -80 -3 0 -6 29 -6 65 0 77 10 85 18 15z m-35 -22 c-3 -55 -5
-63 -23 -63 -17 0 -20 8 -23 49 -4 60 2 76 28 76 19 0 21 -5 18 -62z m-61 -16
c2 -60 -11 -86 -20 -39 -4 19 -4 18 -6 -5 0 -16 -5 -28 -11 -28 -11 0 -14 123
-3 134 4 4 14 5 23 4 11 -3 15 -18 17 -66z m-59 17 c2 -14 -4 -31 -12 -39 -9
-7 -16 -23 -16 -36 0 -13 -4 -24 -10 -24 -6 0 -10 29 -10 66 0 62 1 65 23 62
15 -2 23 -11 25 -29z"/>
<path d="M423 475 c0 -27 2 -38 4 -22 2 15 2 37 0 50 -2 12 -4 0 -4 -28z"/>
<path d="M363 455 c0 -27 2 -38 4 -22 2 15 2 37 0 50 -2 12 -4 0 -4 -28z"/>
<path d="M673 375 c0 -27 2 -38 4 -22 2 15 2 37 0 50 -2 12 -4 0 -4 -28z"/>
<path d="M612 390 c0 -14 2 -19 5 -12 2 6 2 18 0 25 -3 6 -5 1 -5 -13z"/>
<path d="M551 374 c0 -11 3 -14 6 -6 3 7 2 16 -1 19 -3 4 -6 -2 -5 -13z"/>
<path d="M367 343 l-68 -16 3 -56 c2 -35 7 -55 14 -54 7 1 42 7 80 13 37 6 71
13 76 16 4 3 8 30 8 60 0 63 1 62 -113 37z m43 -53 c0 -4 -7 -15 -15 -26 -15
-18 -15 -18 -9 9 4 17 2 27 -5 27 -6 0 -11 5 -11 10 0 6 8 5 20 -2 11 -7 20
-15 20 -18z"/>
</g>
</svg>
