<?xml version="1.0" standalone="no"?>
<!DOCTYPE svg PUBLIC "-//W3C//DTD SVG 20010904//EN"
 "http://www.w3.org/TR/2001/REC-SVG-20010904/DTD/svg10.dtd">
<svg version="1.0" xmlns="http://www.w3.org/2000/svg"
fill="rgba(179, 179, 179,0.5)" viewBox="0 0 492.000000 113.000000"
 preserveAspectRatio="xMidYMid meet">

<g transform="translate(0.000000,113.000000) scale(0.100000,-0.100000)"
stroke="none">
<path d="M262 1120 c-148 -31 -255 -163 -256 -315 -1 -98 3 -105 52 -92 35 9
44 7 87 -16 49 -28 80 -34 90 -18 3 6 18 71 34 146 29 133 41 165 66 165 24 0
35 -28 61 -156 14 -71 30 -137 35 -146 13 -24 31 -23 92 8 45 23 57 25 89 17
45 -12 48 -7 48 86 0 94 -22 152 -86 220 -83 90 -194 126 -312 101z"/>
<path d="M1881 1019 c-46 -14 -124 -94 -139 -145 -36 -123 13 -239 122 -290
188 -87 390 92 321 285 -44 125 -171 188 -304 150z m145 -95 c105 -50 107
-201 4 -255 -128 -69 -268 82 -187 202 42 63 117 84 183 53z"/>
<path d="M3411 1019 c-46 -14 -127 -97 -140 -145 -35 -125 14 -239 123 -290
57 -27 121 -30 177 -10 43 15 109 64 109 80 0 7 -14 25 -30 41 -30 29 -30 29
-45 8 -35 -51 -127 -67 -183 -33 -88 54 -96 176 -16 239 56 44 153 36 194 -16
l20 -26 30 28 c17 16 30 33 30 37 0 5 -14 22 -32 38 -57 53 -154 72 -237 49z"/>
<path d="M3906 1016 c-86 -32 -145 -120 -146 -219 0 -101 43 -170 135 -213
157 -74 330 36 329 211 0 93 -48 171 -132 211 -49 23 -137 28 -186 10z m154
-96 c99 -50 98 -200 -2 -251 -95 -49 -197 7 -206 113 -5 63 23 113 78 140 46
23 82 23 130 -2z"/>
<path d="M4836 1014 c-20 -19 -20 -35 -1 -60 14 -18 14 -17 4 8 -23 54 41 81
68 28 7 -14 13 -19 13 -12 0 46 -52 69 -84 36z"/>
<path d="M840 794 l0 -226 143 4 c155 4 189 14 213 59 8 16 14 47 14 70 0 34
-6 47 -32 72 l-33 31 28 27 c21 22 27 37 27 71 0 94 -46 118 -230 118 l-130 0
0 -226z m252 129 c22 -20 23 -41 1 -65 -13 -14 -31 -18 -90 -18 l-73 0 0 43
c0 24 3 47 7 50 3 4 36 7 71 7 47 0 71 -5 84 -17z m8 -183 c25 -25 25 -45 0
-70 -18 -18 -31 -20 -93 -18 l-72 3 -3 39 c-5 62 -1 66 78 66 57 0 74 -4 90
-20z"/>
<path d="M1300 795 l0 -225 45 0 45 0 0 80 0 80 38 0 c38 0 39 -2 83 -80 l44
-80 53 0 54 0 -32 53 c-54 90 -66 120 -53 124 78 27 107 147 51 218 -35 44
-75 55 -208 55 l-120 0 0 -225z m230 132 c44 -22 39 -87 -8 -106 -16 -7 -51
-11 -78 -9 l-49 3 -3 49 c-2 27 -1 55 2 62 7 18 101 19 136 1z"/>
<path d="M2390 998 c-28 -65 -160 -411 -160 -419 0 -5 23 -9 50 -9 49 0 50 1
66 40 l16 40 95 0 95 0 15 -40 c16 -40 16 -40 69 -40 l54 0 -19 48 c-10 26
-49 127 -86 225 l-68 177 -59 0 c-51 0 -60 -3 -68 -22z m108 -180 l31 -88 -69
0 c-39 0 -70 3 -70 6 0 20 65 183 70 176 4 -4 21 -46 38 -94z"/>
<path d="M2772 799 l3 -224 115 0 c140 0 193 17 244 77 93 108 60 274 -68 340
-34 18 -63 23 -169 26 l-127 4 2 -223z m248 123 c89 -44 93 -190 7 -247 -13
-8 -54 -18 -91 -22 l-66 -6 0 147 0 146 58 0 c34 0 71 -7 92 -18z"/>
<path d="M4300 796 l0 -226 45 0 44 0 3 147 3 148 52 -83 c36 -55 59 -82 72
-82 12 0 36 27 72 82 l54 82 3 -147 3 -147 44 0 45 0 0 226 0 225 -52 -3 -52
-3 -53 -85 c-29 -47 -57 -85 -63 -85 -6 0 -34 38 -63 85 l-53 85 -52 3 -52 3
0 -225z"/>
<path d="M4857 1004 c-4 -4 -7 -17 -7 -28 0 -17 2 -18 9 -6 6 8 7 18 5 22 -3
4 0 8 6 8 7 0 10 -7 7 -15 -4 -8 -2 -17 2 -19 5 -3 8 4 7 16 -1 22 -17 34 -29
22z"/>
<path d="M315 755 c-30 -142 -73 -172 -176 -119 -51 25 -89 29 -96 8 -5 -15
73 -101 117 -129 84 -53 211 -62 303 -21 61 27 123 78 150 125 l18 30 -26 7
c-17 4 -41 -2 -75 -20 -55 -29 -77 -32 -113 -15 -33 15 -44 38 -65 139 l-18
85 -19 -90z"/>
<path d="M860 410 c0 -7 663 -10 1970 -10 1307 0 1970 3 1970 10 0 7 -663 10
-1970 10 -1307 0 -1970 -3 -1970 -10z"/>
<path d="M1161 261 c-13 -3 -34 -19 -45 -34 -30 -40 -30 -144 0 -183 41 -56
139 -52 169 6 19 37 19 133 0 169 -8 16 -28 34 -46 40 -35 12 -42 12 -78 2z
m83 -34 c46 -46 42 -154 -6 -190 -58 -43 -118 6 -118 97 0 61 17 94 54 105 45
13 45 13 70 -12z"/>
<path d="M3064 256 c-37 -17 -56 -59 -56 -124 0 -96 58 -148 137 -122 42 14
62 40 70 95 18 113 -61 192 -151 151z m79 -17 c32 -14 47 -49 47 -104 0 -55
-15 -90 -47 -104 -35 -16 -49 -14 -78 11 -54 48 -37 182 25 199 14 4 26 7 27
8 1 1 13 -4 26 -10z"/>
<path d="M848 253 c8 -3 12 -37 12 -118 0 -81 -4 -115 -12 -118 -7 -3 5 -6 26
-6 31 -1 37 2 28 11 -7 7 -12 34 -12 60 l0 48 50 0 c28 0 50 5 50 10 0 6 -23
10 -51 10 l-50 0 3 43 3 42 48 3 c28 2 47 -1 47 -7 0 -6 4 -11 9 -11 5 0 7 9
4 20 -5 18 -13 20 -87 19 -44 0 -75 -3 -68 -6z"/>
<path d="M1400 241 c5 -11 10 -60 10 -109 0 -108 12 -125 89 -126 79 -1 91 16
91 134 0 61 4 100 12 108 9 9 5 12 -20 12 -30 0 -32 -2 -21 -21 15 -28 8 -184
-9 -201 -20 -20 -91 -16 -108 7 -18 24 -20 185 -2 203 9 9 5 12 -20 12 -29 0
-32 -2 -22 -19z"/>
<path d="M1708 248 c8 -8 12 -48 12 -113 0 -65 -4 -105 -12 -113 -9 -9 -4 -12
23 -11 18 0 28 3 22 6 -9 3 -13 35 -13 111 l0 106 33 -55 c62 -103 110 -169
121 -169 7 0 10 30 8 95 -2 52 1 109 7 125 10 29 9 30 -22 30 -18 0 -27 -4
-21 -8 7 -4 13 -46 15 -103 l4 -97 -69 104 c-58 87 -73 104 -94 104 -20 0 -23
-3 -14 -12z"/>
<path d="M2018 253 c8 -3 12 -37 12 -118 0 -81 -4 -115 -12 -118 -7 -3 19 -6
59 -6 40 -1 83 4 97 10 59 27 72 164 21 215 -22 22 -32 24 -107 23 -46 0 -77
-3 -70 -6z m158 -38 c25 -38 29 -106 10 -143 -12 -22 -27 -34 -55 -42 -66 -18
-71 -11 -71 99 0 54 3 101 7 104 3 4 26 7 49 7 35 0 47 -5 60 -25z"/>
<path d="M2366 168 c-21 -51 -47 -108 -57 -125 l-18 -33 24 0 c18 0 25 5 25
20 0 10 5 31 12 45 10 22 17 25 60 25 47 0 50 -2 64 -35 8 -20 12 -40 9 -45
-4 -6 5 -10 18 -10 l24 0 -42 108 c-23 59 -45 115 -48 125 -13 36 -34 14 -71
-75z m84 -45 c0 -14 -66 -18 -73 -5 -3 4 5 31 16 60 l20 54 19 -49 c10 -26 18
-54 18 -60z"/>
<path d="M2580 240 c0 -11 5 -20 10 -20 6 0 10 5 10 10 0 6 14 10 30 10 l30 0
0 -109 c0 -78 -4 -111 -12 -114 -7 -3 5 -5 27 -5 22 0 34 2 28 5 -9 3 -13 36
-13 114 l0 109 30 0 c17 0 30 -4 30 -10 0 -5 5 -10 10 -10 6 0 10 9 10 20 0
19 -7 20 -95 20 -88 0 -95 -1 -95 -20z"/>
<path d="M2858 253 c8 -3 12 -37 12 -118 0 -81 -4 -115 -12 -118 -7 -3 5 -5
27 -5 22 0 34 2 28 5 -18 7 -18 214 -1 231 9 9 3 12 -27 11 -22 0 -34 -3 -27
-6z"/>
<path d="M3310 241 c14 -28 13 -204 -2 -219 -9 -9 -4 -12 23 -12 18 0 29 4 23
8 -8 4 -13 47 -15 110 -2 56 -3 102 -3 102 1 0 34 -49 74 -110 40 -61 77 -110
81 -110 5 0 9 51 9 113 0 75 4 117 12 125 9 9 4 12 -22 12 -20 0 -30 -4 -23
-8 7 -4 13 -44 15 -104 2 -53 1 -94 -2 -90 -3 4 -35 51 -70 104 -51 76 -70 98
-88 98 -19 0 -21 -3 -12 -19z"/>
</g>
</svg>
